<?xml version="1.0" encoding="utf-8"?>
<!-- Generator: Adobe Illustrator 24.0.2, SVG Export Plug-In . SVG Version: 6.00 Build 0)  -->
<svg version="1.1" id="Capa_1" xmlns="http://www.w3.org/2000/svg" xmlns:xlink="http://www.w3.org/1999/xlink" x="0px" y="0px"
	 viewBox="0 0 910.9 190.8" style="enable-background:new 0 0 910.9 190.8;" xml:space="preserve">
<style type="text/css">
	.st0{fill:#FFFFFF;}
</style>
<g>
	<g>
		<g>
			<polygon class="st0" points="271,1.5 271,143.5 71.7,143.5 71.7,189.3 271,189.3 316.9,189.3 316.9,143.5 316.9,1.5 			"/>
			<polygon class="st0" points="174.8,120.6 174.8,74.8 46.5,74.8 46.5,47.3 245.8,47.3 245.8,1.5 46.5,1.5 0.7,1.5 0.7,47.3 
				0.7,74.8 0.7,120.6 0.7,189.3 46.5,189.3 46.5,120.6 			"/>
			<rect x="197.1" y="74.4" class="st0" width="46" height="46"/>
		</g>
	</g>
	<g>
		<path class="st0" d="M376.6,67.2v10.1H362v37.8h-11.1V31.8h27.6v10.1H362v25.3H376.6z"/>
		<path class="st0" d="M440.2,115.1h-26.4V31.8h11.1V105h15.3V115.1z"/>
		<path class="st0" d="M488.3,115.1h-11.1V84.5l-13.7-52.7h11l8.4,36.2h0.3l7.5-36.2h11l-13.5,52.7V115.1z"/>
		<path class="st0" d="M562.4,115.1h-26.4V31.8h11.1V105h15.3V115.1z"/>
		<path class="st0" d="M607.1,115.1H596v-69c0-9.5,4.4-14.3,13.3-14.3h8.4c8.9,0,13.3,4.8,13.3,14.3v69h-11.1V84.6h-12.8V115.1z
			 M619.9,74.5V46.8c0-3.2-1.6-4.9-4.9-4.9h-3c-3.2,0-4.9,1.6-4.9,4.9v27.7H619.9z"/>
		<path class="st0" d="M691.8,72.1V31.8h11.1v83.3h-11.1V98.5l-11.9-37.9v54.5h-11.1V31.8h11.1L691.8,72.1z"/>
		<path class="st0" d="M774.5,95.6v5.3c0,9.4-4.4,14.2-13.3,14.2H754c-8.9,0-13.3-4.7-13.3-14.2V46c0-9.4,4.4-14.1,13.3-14.1h7.2
			c8.9,0,13.3,4.7,13.3,14.1v9.4h-11.1v-8.6c0-3.2-1.7-4.9-5-4.9h-2.2c-2.9,0-4.4,1.6-4.4,4.9v53.4c0,3.2,1.5,4.9,4.4,4.9h2.8
			c2.9,0,4.4-1.6,4.4-4.9v-4.5H774.5z"/>
		<path class="st0" d="M811,115.1V31.8h27.6v10.1h-16.5v25.3h14.6v10.1h-14.6V105h16.5v10.1H811z"/>
		<path class="st0" d="M874.5,31.8h21.8c8.5,0,12.8,4.8,12.8,14.3v20.5c0,7.3-2.2,11.9-6.6,13.8l7.8,34.7h-10.6l-7.3-33.6h-6.7v33.6
			h-11.1V31.8z M885.6,72h7.3c3.3,0,5-2,5-6v-18c0-4-1.7-6-5-6h-7.3V72z"/>
	</g>
	<g>
		<path class="st0" d="M445.5,144.8v-2.5c0-1.1-0.6-1.7-1.7-1.7h-0.6c-1.1,0-1.6,0.6-1.6,1.7v4.7c0,0.5,0.1,0.9,0.3,1.1
			c0.2,0.2,0.6,0.4,1,0.7l3.6,1.9c0.8,0.4,1.4,0.8,1.7,1c0.3,0.3,0.6,0.6,0.8,0.9c0.2,0.4,0.3,1,0.3,2v6c0,3.2-1.5,4.8-4.6,4.8h-2.3
			c-3,0-4.5-1.7-4.5-5.2V159h3.8v1.5c0,1.1,0.6,1.7,1.7,1.7h0.7c1,0,1.5-0.6,1.5-1.7v-4.8c0-0.5-0.1-0.9-0.3-1.1
			c-0.2-0.2-0.6-0.4-1-0.7l-3.6-2c-0.8-0.4-1.4-0.8-1.7-1.1c-0.4-0.3-0.6-0.7-0.8-1.1s-0.2-1.1-0.2-1.8v-5.8c0-3.2,1.5-4.9,4.5-4.9
			h2.4c3,0,4.5,1.6,4.5,4.9v2.8H445.5z"/>
		<path class="st0" d="M474.9,165.6h-9v-28.4h3.8v25h5.2V165.6z"/>
		<path class="st0" d="M494.9,165.6c-3.1,0-4.6-1.6-4.6-4.8v-18.7c0-3.2,1.5-4.9,4.5-4.9h3.6c3,0,4.5,1.6,4.5,4.9v18.7
			c0,3.2-1.5,4.8-4.6,4.8H494.9z M495.8,162.2h1.9c1,0,1.5-0.6,1.5-1.7v-18.2c0-1.1-0.6-1.7-1.7-1.7h-1.8c-1.1,0-1.7,0.6-1.7,1.7
			v18.2C494.1,161.6,494.7,162.2,495.8,162.2z"/>
		<path class="st0" d="M525.7,155.2v-3.4h5.8v13.8H524c-2.9,0-4.4-1.6-4.4-4.8v-18.7c0-3.2,1.5-4.9,4.4-4.9h2.6
			c3.2,0,4.8,1.6,4.8,4.9v3.1h-3.8v-2.5c0-1.4-0.5-2.1-1.6-2.1h-0.9c-1.1,0-1.7,0.7-1.7,2.1v17.4c0,1.4,0.6,2.1,1.7,2.1h2.6v-7
			H525.7z"/>
		<path class="st0" d="M551.6,165.6h-3.8v-23.5c0-3.2,1.5-4.9,4.5-4.9h2.8c3,0,4.5,1.6,4.5,4.9v23.5h-3.8v-10.4h-4.4V165.6z
			 M555.9,151.8v-9.5c0-1.1-0.6-1.7-1.7-1.7h-1c-1.1,0-1.7,0.6-1.7,1.7v9.5H555.9z"/>
		<path class="st0" d="M584.4,150.9v-13.7h3.8v28.4h-3.8V160l-4.1-12.9v18.6h-3.8v-28.4h3.8L584.4,150.9z"/>
		<path class="st0" d="M641.4,153.9l3.5-16.7h4.2v28.4h-3.8l0.4-18.6l-2.8,13.4h-2.9l-2.8-13.4l0.4,18.6h-3.8v-28.4h4.2L641.4,153.9
			z"/>
		<path class="st0" d="M669.7,165.6h-3.8v-23.5c0-3.2,1.5-4.9,4.5-4.9h2.8c3,0,4.5,1.6,4.5,4.9v23.5h-3.8v-10.4h-4.4V165.6z
			 M674.1,151.8v-9.5c0-1.1-0.6-1.7-1.7-1.7h-1c-1.1,0-1.7,0.6-1.7,1.7v9.5H674.1z"/>
		<path class="st0" d="M702.4,153.9l3.5-16.7h4.2v28.4h-3.8l0.4-18.6l-2.8,13.4h-2.9l-2.8-13.4l0.4,18.6h-3.8v-28.4h4.2L702.4,153.9
			z"/>
		<path class="st0" d="M730.7,165.6h-3.8v-23.5c0-3.2,1.5-4.9,4.5-4.9h2.8c3,0,4.5,1.6,4.5,4.9v23.5H735v-10.4h-4.4V165.6z
			 M735,151.8v-9.5c0-1.1-0.6-1.7-1.7-1.7h-1c-1.1,0-1.7,0.6-1.7,1.7v9.5H735z"/>
		<path class="st0" d="M764.7,165.6h-9v-28.4h3.8v25h5.2V165.6z"/>
		<path class="st0" d="M784.7,165.6c-3.1,0-4.6-1.6-4.6-4.8v-18.7c0-3.2,1.5-4.9,4.5-4.9h3.6c3,0,4.5,1.6,4.5,4.9v18.7
			c0,3.2-1.5,4.8-4.6,4.8H784.7z M785.6,162.2h1.9c1,0,1.5-0.6,1.5-1.7v-18.2c0-1.1-0.6-1.7-1.7-1.7h-1.8c-1.1,0-1.7,0.6-1.7,1.7
			v18.2C783.9,161.6,784.4,162.2,785.6,162.2z"/>
		<path class="st0" d="M817.5,150.9v-13.7h3.8v28.4h-3.8V160l-4.1-12.9v18.6h-3.8v-28.4h3.8L817.5,150.9z"/>
	</g>
</g>
</svg>
